<?xml version="1.0" encoding="UTF-8" standalone="no"?>
<!-- Created with Inkscape (http://www.inkscape.org/) -->

<svg
   width="134.13797mm"
   height="134.13797mm"
   viewBox="0 0 134.13797 134.13797"
   version="1.1"
   id="svg1"
   xml:space="preserve"
   xmlns="http://www.w3.org/2000/svg"
   xmlns:svg="http://www.w3.org/2000/svg"><defs
     id="defs1" /><g
     id="layer1"
     transform="translate(-281.85766,-139.5088)"><path
       style="fill:#000000"
       d="M 281.85768,206.57778 V 139.5088 h 67.06898 67.06899 v 67.06898 67.06899 h -67.06899 -67.06898 z"
       id="path2" /><path
       d="m 344.57247,263.52137 c 1.23724,-0.33143 1.21659,0.003 1.21659,-19.75354 v -18.2918 l -0.64217,-0.37667 c -1.63246,-0.95761 -11.10283,-6.2623 -11.17994,-6.2623 -0.0478,0 -0.0868,5.66144 -0.0868,12.58095 0,13.36823 0.002,13.34224 -1.07958,12.95724 -0.78714,-0.28016 -14.67447,-6.90888 -14.97183,-7.14636 -0.22057,-0.17611 -0.3039,-2.65323 -0.35026,-10.41073 l -0.0607,-10.17954 -1.40105,-0.79666 c -0.77058,-0.43816 -1.7163,-0.97946 -2.1016,-1.20289 -0.38529,-0.22343 -2.1191,-1.22404 -3.85291,-2.22363 -1.73381,-0.99955 -3.35966,-1.96011 -3.61299,-2.13456 -0.25332,-0.17453 -0.54229,-0.3172 -0.64214,-0.3172 -0.0998,0 -0.17791,7.64454 -0.17327,16.98786 0.007,13.78576 0.0676,17.09478 0.32249,17.5551 0.2336,0.42169 5.04003,2.9439 18.73091,9.82915 10.12918,5.09405 18.62685,9.27697 18.88371,9.29537 0.25685,0.0184 0.70765,-0.031 1.00176,-0.10978 z m 28.20099,-8.68686 c 9.75303,-4.86008 18.07237,-9.12355 18.48746,-9.47437 0.41508,-0.35084 0.86675,-1.02418 1.00372,-1.49633 0.17041,-0.58719 0.22702,-7.29072 0.17936,-21.21518 -0.0683,-19.93674 -0.0794,-20.36958 -0.53673,-20.98092 -0.25685,-0.34331 -0.93987,-0.89025 -1.51781,-1.21541 -1.98556,-1.11714 -19.26642,-10.71378 -22.37399,-12.42504 -1.71017,-0.94175 -3.2601,-1.86296 -3.44427,-2.04712 -0.28187,-0.28187 -0.33486,-2.17971 -0.33486,-11.99055 V 162.3339 l 0.87567,-0.40971 c 0.74929,-0.3506 1.74522,-0.42005 6.90162,-0.48128 5.99541,-0.0711 6.03239,-0.0687 7.29427,0.50907 l 1.2683,0.58065 0.0613,8.47898 0.0613,8.47901 5.72098,2.85587 c 3.14656,1.57071 5.80185,2.85795 5.90066,2.8605 0.0987,0.002 0.15135,-7.54305 0.11676,-16.76801 l -0.063,-16.77264 -0.66511,-0.87187 c -0.36581,-0.47954 -0.92431,-0.97042 -1.24114,-1.09089 -0.34037,-0.12942 -7.88896,-0.219 -18.4518,-0.219 h -17.87579 l -0.90658,0.90656 -0.90656,0.90658 0.003,21.21849 0.003,21.21852 1.33991,0.726 c 0.73694,0.39931 2.18054,1.17566 3.20799,1.72525 1.02745,0.54959 3.44428,1.86254 5.37073,2.91764 1.92646,1.05512 4.29074,2.34325 5.25396,2.86252 9.61113,5.18125 12.09554,6.60001 12.67121,7.23612 0.38154,0.4216 0.40508,1.37713 0.34887,14.17157 l -0.0603,13.71951 -7.23882,3.71053 c -3.98134,2.04077 -7.50675,3.71249 -7.83425,3.7149 -0.3275,0.002 -0.72154,-0.12176 -0.87566,-0.2758 -0.21226,-0.21228 -0.28021,-4.00535 -0.28021,-15.64224 v -15.36204 l -0.99241,-0.62735 c -3.16564,-2.00113 -16.07529,-9.69004 -20.60727,-12.27354 -0.64216,-0.36608 -1.32517,-0.76449 -1.51782,-0.88536 -0.52734,-0.33089 -7.19688,-4.23851 -8.87337,-5.19883 -0.44952,-0.25748 -1.23761,-0.70539 -1.75134,-0.99536 -1.54377,-0.87136 -5.14437,-2.9364 -9.16739,-5.25773 l -3.79664,-2.19073 0.0604,-11.76453 0.0604,-11.76454 1.16754,-0.44337 c 1.03137,-0.39167 1.83486,-0.44338 6.88854,-0.44338 5.05346,0 5.85725,0.0517 6.88855,0.44333 l 1.16756,0.44333 0.0617,7.36563 0.0617,7.36563 5.75669,2.87394 c 3.16619,1.58065 5.84424,2.90895 5.95125,2.95175 0.10699,0.0427 0.19455,-6.817 0.19455,-15.24401 0,-16.88016 0.0443,-16.34966 -1.45668,-17.49444 l -0.80574,-0.61455 h -17.65116 c -11.9215,0 -17.86348,0.0807 -18.3053,0.24872 -0.35978,0.13672 -0.84588,0.45448 -1.0802,0.706 -1.11993,1.20212 -1.09815,0.76096 -1.09815,22.23583 0,19.07134 0.0226,20.19049 0.41725,20.54753 0.57027,0.5161 3.5862,2.31009 10.09069,6.00231 5.34955,3.03665 8.30654,4.74148 16.92949,9.76067 2.31175,1.34561 4.78114,2.7793 5.48748,3.18604 7.62434,4.38997 13.53683,7.89369 13.74612,8.14585 0.18194,0.21924 0.27526,6.47195 0.31919,21.38529 l 0.062,21.07548 0.55127,0.44635 c 0.30318,0.24549 0.88743,0.44635 1.2983,0.44635 0.51482,0 6.25941,-2.7469 18.4798,-8.83649 z"
       style="fill:#ce9f53;fill-opacity:1;stroke-width:1.7826"
       id="path1-3" /></g></svg>
